# xmcd CD database file
#
# Track frame offsets:
#	150
#	16935
#	34862
#	67175
#	96739
#	119511
#	146616
#	158168
#	182905
#	199615
#	214528
#	236072
#	254186
#	278893
#
# Disc length: 3881 seconds
#
# Revision: 0
# Processed by: cddbd v1.5.2PL0 Copyright (c) Steve Scherf et al.
# Submitted via: CDex 1.70beta2
#
DISCID=dc0f270e
DTITLE=miniMAXband - Flying Town
DYEAR=2007
DGENRE=Jazz
TTITLE0=miniMAXband - Flying Town
TTITLE1=miniMAXband - Pisen kocici zeny
TTITLE2=miniMAXband - Giovanni's time
TTITLE3=miniMAXband - Old Devil Sun
TTITLE4=miniMAXband - Pokoj, kde se neda rozsvitit
TTITLE5=miniMAXband - Secret Love
TTITLE6=miniMAXband - Cizinka
TTITLE7=miniMAXband - The Beauty of All Things
TTITLE8=miniMAXband - Heavy Steps to Seven
TTITLE9=miniMAXband - Ja porad hledam
TTITLE10=miniMAXband - The Moon Gets Blue
TTITLE11=miniMAXband - Mortal Vombat
TTITLE12=miniMAXband - The Man I Love
TTITLE13=miniMAXband - Ulice bledych panu
EXTD=YEAR: 2007
EXTT0=
EXTT1=
EXTT2=
EXTT3=
EXTT4=
EXTT5=
EXTT6=
EXTT7=
EXTT8=
EXTT9=
EXTT10=
EXTT11=
EXTT12=
EXTT13=
PLAYORDER=
